<svg version="1.1" width="56" height="39" viewBox="-1 8 56 39" xmlns="http://www.w3.org/2000/svg" xmlns:xlink="http://www.w3.org/1999/xlink">
  <!-- Exported by Scratch - http://scratch.mit.edu/ -->
  <path id="ID0.3091484005562961" fill="#FFFF00" stroke="#000000" stroke-width="2" d="M 215.500 216.200 L 238.400 222.850 L 240.250 241 L 222.150 235.400 L 215.500 216.200 Z " transform="matrix(-0.7772448658943176, 0.6291982531547546, -0.6291982531547546, -0.7772448658943176, 345.75, 68.4)"/>
  <path id="ID0.3091484005562961" fill="#FFFF00" stroke="#000000" stroke-width="2" d="M 215.500 216.200 L 238.400 222.850 L 240.250 241 L 222.150 235.400 L 215.500 216.200 Z " transform="matrix(-0.7772448658943176, 0.6291982531547546, -0.6291982531547546, -0.7772448658943176, 355, 68.3)"/>
  <path id="ID0.3091484005562961" fill="#FFFF00" stroke="#000000" stroke-width="2" d="M 215.500 216.200 L 238.400 222.850 L 240.250 241 L 222.150 235.400 L 215.500 216.200 Z " transform="matrix(-0.7772448658943176, 0.6291982531547546, -0.6291982531547546, -0.7772448658943176, 347, 64.6)"/>
  <path id="ID0.3091484005562961" fill="#FFFF00" stroke="#000000" stroke-width="2" d="M 215.500 216.200 L 238.400 222.850 L 240.250 241 L 222.150 235.400 L 215.500 216.200 Z " transform="matrix(-0.7772448658943176, 0.6291982531547546, -0.6291982531547546, -0.7772448658943176, 355, 63.85)"/>
  <path id="ID0.3091484005562961" fill="#FFFF00" stroke="#000000" stroke-width="2" d="M 215.500 216.200 L 238.400 222.850 L 240.250 241 L 222.150 235.400 L 215.500 216.200 Z " transform="matrix(-0.7772448658943176, 0.6291982531547546, -0.6291982531547546, -0.7772448658943176, 340.5, 59.35)"/>
  <path id="ID0.3091484005562961" fill="#FFFF00" stroke="#000000" stroke-width="2" d="M 215.500 216.200 L 238.400 222.850 L 240.250 241 L 222.150 235.400 L 215.500 216.200 Z " transform="matrix(-0.7772448658943176, 0.6291982531547546, -0.6291982531547546, -0.7772448658943176, 347.75, 60.05)"/>
  <path id="ID0.3091484005562961" fill="#FFFF00" stroke="#000000" stroke-width="2" d="M 215.500 216.200 L 238.400 222.850 L 240.250 241 L 222.150 235.400 L 215.500 216.200 Z " transform="matrix(-0.7772448658943176, 0.6291982531547546, -0.6291982531547546, -0.7772448658943176, 356, 59.8)"/>
  <path id="ID0.3091484005562961" fill="#FFFF00" stroke="#000000" stroke-width="2" d="M 215.500 216.200 L 238.400 222.850 L 240.250 241 L 222.150 235.400 L 215.500 216.200 Z " transform="matrix(-0.7772448658943176, 0.6291982531547546, -0.6291982531547546, -0.7772448658943176, 348.5, 54.6)"/>
</svg>