<svg version="1.1" width="55" height="33" viewBox="-1 -1 55 33" xmlns="http://www.w3.org/2000/svg" xmlns:xlink="http://www.w3.org/1999/xlink">
  <!-- Exported by Scratch - http://scratch.mit.edu/ -->
  <path id="ID0.3301554177887738" fill="#009933" stroke="#000000" stroke-width="1" d="M 223.500 131.500 C 226.535 131.500 229.285 132.214 231.276 133.368 C 233.267 134.522 234.500 136.116 234.500 137.875 C 234.500 139.634 233.267 141.228 231.276 142.382 C 229.285 143.536 226.535 144.250 223.500 144.250 C 220.465 144.250 217.715 143.536 215.724 142.382 C 213.733 141.228 212.500 139.634 212.500 137.875 C 212.500 136.116 213.733 134.522 215.724 133.368 C 217.715 132.214 220.465 131.500 223.500 131.500 Z " transform="matrix(1, 0, 0, 1, -211.25, -116.75)"/>
  <path id="ID0.4677049810998142" fill="#00FF55" stroke="none" d="M 235.625 122 C 237.591 122 239.372 122.448 240.662 123.172 C 241.952 123.896 242.750 124.896 242.750 126 C 242.750 127.104 241.952 128.104 240.662 128.828 C 239.372 129.552 237.591 130 235.625 130 C 233.659 130 231.878 129.552 230.588 128.828 C 229.298 128.104 228.500 127.104 228.500 126 C 228.500 124.896 229.298 123.896 230.588 123.172 C 231.878 122.448 233.659 122 235.625 122 Z " transform="matrix(1.175438642501831, 0, 0, 1.09375, -263.75, -117.25)"/>
  <path id="ID0.3301554177887738" fill="#009933" stroke="#000000" stroke-width="1" d="M 223.500 131.500 C 226.535 131.500 229.285 132.214 231.276 133.368 C 233.267 134.522 234.500 136.116 234.500 137.875 C 234.500 139.634 233.267 141.228 231.276 142.382 C 229.285 143.536 226.535 144.250 223.500 144.250 C 220.465 144.250 217.715 143.536 215.724 142.382 C 213.733 141.228 212.500 139.634 212.500 137.875 C 212.500 136.116 213.733 134.522 215.724 133.368 C 217.715 132.214 220.465 131.500 223.500 131.500 Z " transform="matrix(1, 0, 0, 1, -202.25, -112.75)"/>
  <path id="ID0.4677049810998142" fill="#00FF55" stroke="none" d="M 235.625 122 C 237.591 122 239.372 122.448 240.662 123.172 C 241.952 123.896 242.750 124.896 242.750 126 C 242.750 127.104 241.952 128.104 240.662 128.828 C 239.372 129.552 237.591 130 235.625 130 C 233.659 130 231.878 129.552 230.588 128.828 C 229.298 128.104 228.500 127.104 228.500 126 C 228.500 124.896 229.298 123.896 230.588 123.172 C 231.878 122.448 233.659 122 235.625 122 Z " transform="matrix(1.175438642501831, 0, 0, 1.09375, -255.75, -112.8)"/>
  <path id="ID0.3301554177887738" fill="#009933" stroke="#000000" stroke-width="1" d="M 223.500 131.500 C 226.535 131.500 229.285 132.214 231.276 133.368 C 233.267 134.522 234.500 136.116 234.500 137.875 C 234.500 139.634 233.267 141.228 231.276 142.382 C 229.285 143.536 226.535 144.250 223.500 144.250 C 220.465 144.250 217.715 143.536 215.724 142.382 C 213.733 141.228 212.500 139.634 212.500 137.875 C 212.500 136.116 213.733 134.522 215.724 133.368 C 217.715 132.214 220.465 131.500 223.500 131.500 Z " transform="matrix(1, 0, 0, 1, -184.75, -112.75)"/>
  <path id="ID0.4677049810998142" fill="#00FF55" stroke="none" d="M 235.625 122 C 237.591 122 239.372 122.448 240.662 123.172 C 241.952 123.896 242.750 124.896 242.750 126 C 242.750 127.104 241.952 128.104 240.662 128.828 C 239.372 129.552 237.591 130 235.625 130 C 233.659 130 231.878 129.552 230.588 128.828 C 229.298 128.104 228.500 127.104 228.500 126 C 228.500 124.896 229.298 123.896 230.588 123.172 C 231.878 122.448 233.659 122 235.625 122 Z " transform="matrix(1.175438642501831, 0, 0, 1.09375, -237.9, -113.05)"/>
  <path id="ID0.3301554177887738" fill="#009933" stroke="#000000" stroke-width="1" d="M 223.500 131.500 C 226.535 131.500 229.285 132.214 231.276 133.368 C 233.267 134.522 234.500 136.116 234.500 137.875 C 234.500 139.634 233.267 141.228 231.276 142.382 C 229.285 143.536 226.535 144.250 223.500 144.250 C 220.465 144.250 217.715 143.536 215.724 142.382 C 213.733 141.228 212.500 139.634 212.500 137.875 C 212.500 136.116 213.733 134.522 215.724 133.368 C 217.715 132.214 220.465 131.500 223.500 131.500 Z " transform="matrix(1, 0, 0, 1, -195.75, -117)"/>
  <path id="ID0.3301554177887738" fill="#009933" stroke="#000000" stroke-width="1" d="M 223.500 131.500 C 226.535 131.500 229.285 132.214 231.276 133.368 C 233.267 134.522 234.500 136.116 234.500 137.875 C 234.500 139.634 233.267 141.228 231.276 142.382 C 229.285 143.536 226.535 144.250 223.500 144.250 C 220.465 144.250 217.715 143.536 215.724 142.382 C 213.733 141.228 212.500 139.634 212.500 137.875 C 212.500 136.116 213.733 134.522 215.724 133.368 C 217.715 132.214 220.465 131.500 223.500 131.500 Z " transform="matrix(1, 0, 0, 1, -180.75, -120.25)"/>
  <path id="ID0.4677049810998142" fill="#00FF55" stroke="none" d="M 235.625 122 C 237.591 122 239.372 122.448 240.662 123.172 C 241.952 123.896 242.750 124.896 242.750 126 C 242.750 127.104 241.952 128.104 240.662 128.828 C 239.372 129.552 237.591 130 235.625 130 C 233.659 130 231.878 129.552 230.588 128.828 C 229.298 128.104 228.500 127.104 228.500 126 C 228.500 124.896 229.298 123.896 230.588 123.172 C 231.878 122.448 233.659 122 235.625 122 Z " transform="matrix(1.175438642501831, 0, 0, 1.09375, -249.15, -117.75)"/>
  <path id="ID0.3301554177887738" fill="#009933" stroke="#000000" stroke-width="1" d="M 223.500 131.500 C 226.535 131.500 229.285 132.214 231.276 133.368 C 233.267 134.522 234.500 136.116 234.500 137.875 C 234.500 139.634 233.267 141.228 231.276 142.382 C 229.285 143.536 226.535 144.250 223.500 144.250 C 220.465 144.250 217.715 143.536 215.724 142.382 C 213.733 141.228 212.500 139.634 212.500 137.875 C 212.500 136.116 213.733 134.522 215.724 133.368 C 217.715 132.214 220.465 131.500 223.500 131.500 Z " transform="matrix(1, 0, 0, 1, -207, -122.7)"/>
  <path id="ID0.4677049810998142" fill="#00FF55" stroke="none" d="M 235.625 122 C 237.591 122 239.372 122.448 240.662 123.172 C 241.952 123.896 242.750 124.896 242.750 126 C 242.750 127.104 241.952 128.104 240.662 128.828 C 239.372 129.552 237.591 130 235.625 130 C 233.659 130 231.878 129.552 230.588 128.828 C 229.298 128.104 228.500 127.104 228.500 126 C 228.500 124.896 229.298 123.896 230.588 123.172 C 231.878 122.448 233.659 122 235.625 122 Z " transform="matrix(1.175438642501831, 0, 0, 1.09375, -260.3, -123.25)"/>
  <path id="ID0.4677049810998142" fill="#00FF55" stroke="none" d="M 235.625 122 C 237.591 122 239.372 122.448 240.662 123.172 C 241.952 123.896 242.750 124.896 242.750 126 C 242.750 127.104 241.952 128.104 240.662 128.828 C 239.372 129.552 237.591 130 235.625 130 C 233.659 130 231.878 129.552 230.588 128.828 C 229.298 128.104 228.500 127.104 228.500 126 C 228.500 124.896 229.298 123.896 230.588 123.172 C 231.878 122.448 233.659 122 235.625 122 Z " transform="matrix(1.175438642501831, 0, 0, 1.09375, -234.15, -120.75)"/>
  <path id="ID0.3301554177887738" fill="#009933" stroke="#000000" stroke-width="1" d="M 223.500 131.500 C 226.535 131.500 229.285 132.214 231.276 133.368 C 233.267 134.522 234.500 136.116 234.500 137.875 C 234.500 139.634 233.267 141.228 231.276 142.382 C 229.285 143.536 226.535 144.250 223.500 144.250 C 220.465 144.250 217.715 143.536 215.724 142.382 C 213.733 141.228 212.500 139.634 212.500 137.875 C 212.500 136.116 213.733 134.522 215.724 133.368 C 217.715 132.214 220.465 131.500 223.500 131.500 Z " transform="matrix(1, 0, 0, 1, -192.5, -121.75)"/>
  <path id="ID0.4677049810998142" fill="#00FF55" stroke="none" d="M 235.625 122 C 237.591 122 239.372 122.448 240.662 123.172 C 241.952 123.896 242.750 124.896 242.750 126 C 242.750 127.104 241.952 128.104 240.662 128.828 C 239.372 129.552 237.591 130 235.625 130 C 233.659 130 231.878 129.552 230.588 128.828 C 229.298 128.104 228.500 127.104 228.500 126 C 228.500 124.896 229.298 123.896 230.588 123.172 C 231.878 122.448 233.659 122 235.625 122 Z " transform="matrix(1.175438642501831, 0, 0, 1.09375, -245.65, -121.75)"/>
  <path id="ID0.3301554177887738" fill="#009933" stroke="#000000" stroke-width="1" d="M 223.500 131.500 C 226.535 131.500 229.285 132.214 231.276 133.368 C 233.267 134.522 234.500 136.116 234.500 137.875 C 234.500 139.634 233.267 141.228 231.276 142.382 C 229.285 143.536 226.535 144.250 223.500 144.250 C 220.465 144.250 217.715 143.536 215.724 142.382 C 213.733 141.228 212.500 139.634 212.500 137.875 C 212.500 136.116 213.733 134.522 215.724 133.368 C 217.715 132.214 220.465 131.500 223.500 131.500 Z " transform="matrix(1, 0, 0, 1, -183.25, -126.2)"/>
  <path id="ID0.3301554177887738" fill="#009933" stroke="#000000" stroke-width="1" d="M 223.500 131.500 C 226.535 131.500 229.285 132.214 231.276 133.368 C 233.267 134.522 234.500 136.116 234.500 137.875 C 234.500 139.634 233.267 141.228 231.276 142.382 C 229.285 143.536 226.535 144.250 223.500 144.250 C 220.465 144.250 217.715 143.536 215.724 142.382 C 213.733 141.228 212.500 139.634 212.500 137.875 C 212.500 136.116 213.733 134.522 215.724 133.368 C 217.715 132.214 220.465 131.500 223.500 131.500 Z " transform="matrix(1, 0, 0, 1, -204.25, -127.8)"/>
  <path id="ID0.4677049810998142" fill="#00FF55" stroke="none" d="M 235.625 122 C 237.591 122 239.372 122.448 240.662 123.172 C 241.952 123.896 242.750 124.896 242.750 126 C 242.750 127.104 241.952 128.104 240.662 128.828 C 239.372 129.552 237.591 130 235.625 130 C 233.659 130 231.878 129.552 230.588 128.828 C 229.298 128.104 228.500 127.104 228.500 126 C 228.500 124.896 229.298 123.896 230.588 123.172 C 231.878 122.448 233.659 122 235.625 122 Z " transform="matrix(1.175438642501831, 0, 0, 1.09375, -237.05, -126.25)"/>
  <path id="ID0.3301554177887738" fill="#009933" stroke="#000000" stroke-width="1" d="M 223.500 131.500 C 226.535 131.500 229.285 132.214 231.276 133.368 C 233.267 134.522 234.500 136.116 234.500 137.875 C 234.500 139.634 233.267 141.228 231.276 142.382 C 229.285 143.536 226.535 144.250 223.500 144.250 C 220.465 144.250 217.715 143.536 215.724 142.382 C 213.733 141.228 212.500 139.634 212.500 137.875 C 212.500 136.116 213.733 134.522 215.724 133.368 C 217.715 132.214 220.465 131.500 223.500 131.500 Z " transform="matrix(1, 0, 0, 1, -187.75, -127.7)"/>
  <path id="ID0.4677049810998142" fill="#00FF55" stroke="none" d="M 235.625 122 C 237.591 122 239.372 122.448 240.662 123.172 C 241.952 123.896 242.750 124.896 242.750 126 C 242.750 127.104 241.952 128.104 240.662 128.828 C 239.372 129.552 237.591 130 235.625 130 C 233.659 130 231.878 129.552 230.588 128.828 C 229.298 128.104 228.500 127.104 228.500 126 C 228.500 124.896 229.298 123.896 230.588 123.172 C 231.878 122.448 233.659 122 235.625 122 Z " transform="matrix(1.175438642501831, 0, 0, 1.09375, -257.05, -128.6)"/>
  <path id="ID0.4677049810998142" fill="#00FF55" stroke="none" d="M 235.625 122 C 237.591 122 239.372 122.448 240.662 123.172 C 241.952 123.896 242.750 124.896 242.750 126 C 242.750 127.104 241.952 128.104 240.662 128.828 C 239.372 129.552 237.591 130 235.625 130 C 233.659 130 231.878 129.552 230.588 128.828 C 229.298 128.104 228.500 127.104 228.500 126 C 228.500 124.896 229.298 123.896 230.588 123.172 C 231.878 122.448 233.659 122 235.625 122 Z " transform="matrix(1.175438642501831, 0, 0, 1.09375, -241.5, -127.5)"/>
  <path id="ID0.3301554177887738" fill="#009933" stroke="#000000" stroke-width="1" d="M 223.500 131.500 C 226.535 131.500 229.285 132.214 231.276 133.368 C 233.267 134.522 234.500 136.116 234.500 137.875 C 234.500 139.634 233.267 141.228 231.276 142.382 C 229.285 143.536 226.535 144.250 223.500 144.250 C 220.465 144.250 217.715 143.536 215.724 142.382 C 213.733 141.228 212.500 139.634 212.500 137.875 C 212.500 136.116 213.733 134.522 215.724 133.368 C 217.715 132.214 220.465 131.500 223.500 131.500 Z " transform="matrix(1, 0, 0, 1, -199, -130.5)"/>
  <path id="ID0.4677049810998142" fill="#00FF55" stroke="none" d="M 235.625 122 C 237.591 122 239.372 122.448 240.662 123.172 C 241.952 123.896 242.750 124.896 242.750 126 C 242.750 127.104 241.952 128.104 240.662 128.828 C 239.372 129.552 237.591 130 235.625 130 C 233.659 130 231.878 129.552 230.588 128.828 C 229.298 128.104 228.500 127.104 228.500 126 C 228.500 124.896 229.298 123.896 230.588 123.172 C 231.878 122.448 233.659 122 235.625 122 Z " transform="matrix(1.175438642501831, 0, 0, 1.09375, -252.5, -130.35)"/>
  <path id="ID0.40484846755862236" fill="none" stroke="#000000" stroke-width="2" stroke-linecap="round" d="M 233 121 L 233.300 121.300 " transform="matrix(1, 0, 0, 1, -211.25, -116.75)"/>
  <path id="ID0.6402932554483414" fill="none" stroke="#000000" stroke-width="2" stroke-linecap="round" d="M 240.500 125.750 L 240.800 126.050 " transform="matrix(1, 0, 0, 1, -211.25, -116.75)"/>
  <path id="ID0.056141672655940056" fill="none" stroke="#000000" stroke-width="2" stroke-linecap="round" d="M 235.250 125.250 L 235.550 125.550 " transform="matrix(1, 0, 0, 1, -211.25, -116.75)"/>
  <path id="ID0.9301007809117436" fill="none" stroke="#000000" stroke-width="2" stroke-linecap="round" d="M 229.250 124.750 L 229.550 125.050 " transform="matrix(1, 0, 0, 1, -211.25, -116.75)"/>
  <path id="ID0.9230295140296221" fill="none" stroke="#000000" stroke-width="2" stroke-linecap="round" d="M 239.250 121 L 239.550 121.300 " transform="matrix(1, 0, 0, 1, -211.25, -116.75)"/>
  <path id="ID0.047162648756057024" fill="none" stroke="#000000" stroke-width="2" stroke-linecap="round" d="M 251 125.500 L 251.300 125.800 " transform="matrix(1, 0, 0, 1, -211.25, -116.75)"/>
  <path id="ID0.6387511752545834" fill="none" stroke="#000000" stroke-width="2" stroke-linecap="round" d="M 247 128.750 L 247.300 129.050 " transform="matrix(1, 0, 0, 1, -211.25, -116.75)"/>
  <path id="ID0.769227338489145" fill="none" stroke="#000000" stroke-width="2" stroke-linecap="round" d="M 238.750 133.750 L 239.050 134.050 " transform="matrix(1, 0, 0, 1, -211.25, -116.75)"/>
  <path id="ID0.6471049161627889" fill="none" stroke="#000000" stroke-width="2" stroke-linecap="round" d="M 242.750 135.750 L 243.050 136.050 " transform="matrix(1, 0, 0, 1, -211.25, -116.75)"/>
  <path id="ID0.24154102616012096" fill="none" stroke="#000000" stroke-width="2" stroke-linecap="round" d="M 254.500 137.750 L 254.800 138.050 " transform="matrix(1, 0, 0, 1, -211.25, -116.75)"/>
  <path id="ID0.14085107389837503" fill="none" stroke="#000000" stroke-width="2" stroke-linecap="round" d="M 260.750 134.500 L 261.050 134.800 " transform="matrix(1, 0, 0, 1, -211.25, -116.75)"/>
  <path id="ID0.5756076443940401" fill="none" stroke="#000000" stroke-width="2" stroke-linecap="round" d="M 254.500 142.500 L 254.800 142.800 " transform="matrix(1, 0, 0, 1, -211.25, -116.75)"/>
  <path id="ID0.8260726621374488" fill="none" stroke="#000000" stroke-width="2" stroke-linecap="round" d="M 249.500 145.500 L 249.800 145.800 " transform="matrix(1, 0, 0, 1, -211.75, -118.75)"/>
  <path id="ID0.39738457603380084" fill="none" stroke="#000000" stroke-width="2" stroke-linecap="round" d="M 235.750 145.250 L 236.050 145.550 " transform="matrix(1, 0, 0, 1, -214.5, -117.25)"/>
  <path id="ID0.1958365235477686" fill="none" stroke="#000000" stroke-width="2" stroke-linecap="round" d="M 226.750 141.750 L 227.050 142.050 " transform="matrix(1, 0, 0, 1, -211.25, -116.75)"/>
  <path id="ID0.8282593511976302" fill="none" stroke="#000000" stroke-width="2" stroke-linecap="round" d="M 236 140.250 L 236.300 140.550 " transform="matrix(1, 0, 0, 1, -211.25, -116.75)"/>
  <path id="ID0.5724602579139173" fill="none" stroke="#000000" stroke-width="2" stroke-linecap="round" d="M 227 135.250 L 227.300 135.550 " transform="matrix(1, 0, 0, 1, -211.25, -116.75)"/>
  <path id="ID0.8887480376288295" fill="none" stroke="#000000" stroke-width="2" stroke-linecap="round" d="M 221.250 132.750 L 221.550 133.050 " transform="matrix(1, 0, 0, 1, -211.25, -116.75)"/>
  <path id="ID0.798714981880039" fill="none" stroke="#000000" stroke-width="2" stroke-linecap="round" d="M 223.750 126.750 L 224.050 127.050 " transform="matrix(1, 0, 0, 1, -211.25, -116.75)"/>
  <path id="ID0.805888261180371" fill="none" stroke="#000000" stroke-width="2" stroke-linecap="round" d="M 218.750 139 L 219.050 139.300 " transform="matrix(1, 0, 0, 1, -211.25, -116.75)"/>
</svg>