<svg version="1.1" width="53" height="29" viewBox="-1 -1 53 29" xmlns="http://www.w3.org/2000/svg" xmlns:xlink="http://www.w3.org/1999/xlink">
  <!-- Exported by Scratch - http://scratch.mit.edu/ -->
  <path id="ID0.0870346836745739" fill="#663B00" stroke="#000000" stroke-width="3" d="M 193.500 189.500 L 281.200 189.500 L 285.500 191.750 L 287.250 196.500 L 285.500 201.500 L 280.950 203.250 L 193.500 203.250 L 188.950 200.750 L 187.200 196 L 188.950 191.750 L 193.500 189.500 Z " transform="matrix(0.49571382999420166, 0, 0, 0.47967997193336487, -91.35, -69.7)"/>
  <path id="ID0.0870346836745739" fill="#663B00" stroke="#000000" stroke-width="3" d="M 193.500 189.500 L 281.200 189.500 L 285.500 191.750 L 287.250 196.500 L 285.500 201.500 L 280.950 203.250 L 193.500 203.250 L 188.950 200.750 L 187.200 196 L 188.950 191.750 L 193.500 189.500 Z " transform="matrix(0.49571382999420166, 0, 0, 0.47967997193336487, -91.3, -76.2)"/>
  <path id="ID0.0870346836745739" fill="#663B00" stroke="#000000" stroke-width="3" d="M 193.500 189.500 L 281.200 189.500 L 285.500 191.750 L 287.250 196.500 L 285.500 201.500 L 280.950 203.250 L 193.500 203.250 L 188.950 200.750 L 187.200 196 L 188.950 191.750 L 193.500 189.500 Z " transform="matrix(0.49571382999420166, 0, 0, 0.47967997193336487, -91.2, -82.75)"/>
  <path id="ID0.0870346836745739" fill="#663B00" stroke="#000000" stroke-width="3" d="M 193.500 189.500 L 281.200 189.500 L 285.500 191.750 L 287.250 196.500 L 285.500 201.500 L 280.950 203.250 L 193.500 203.250 L 188.950 200.750 L 187.200 196 L 188.950 191.750 L 193.500 189.500 Z " transform="matrix(0.49571382999420166, 0, 0, 0.47967997193336487, -91.1, -89.45)"/>
</svg>