<svg version="1.1" width="100" height="17" viewBox="-1 -1 100 17" xmlns="http://www.w3.org/2000/svg" xmlns:xlink="http://www.w3.org/1999/xlink">
  <!-- Exported by Scratch - http://scratch.mit.edu/ -->
  <g id="ID0.5865254020318389" transform="matrix(0.3473820388317108, 0, 0, 0.4253164529800415, -56.15, -53.25)">
    <path id="ID0.0870346836745739" fill="#CC99FF" stroke="#000000" stroke-width="3" d="M 193.500 189.500 L 281.200 189.500 L 285.500 191.750 L 287.250 196.500 L 285.500 201.500 L 280.950 203.250 L 193.500 203.250 L 188.950 200.750 L 187.200 196 L 188.950 191.750 L 193.500 189.500 Z " transform="matrix(0.9563047885894775, 0, 0, 0.9253731369972229, 13.55, -1.55)"/>
    <path id="ID0.8448666068725288" fill="none" stroke="#000000" stroke-width="3" stroke-linecap="round" d="M 200 174.500 L 200 184.750 "/>
    <path id="ID0.6267768274992704" fill="none" stroke="#000000" stroke-width="3" stroke-linecap="round" d="M 209.250 174.250 L 209.250 185 "/>
    <path id="ID0.887018883600831" fill="none" stroke="#000000" stroke-width="3" stroke-linecap="round" d="M 219.750 174.500 L 219.750 185 "/>
    <path id="ID0.5572733832523227" fill="none" stroke="#000000" stroke-width="3" stroke-linecap="round" d="M 228.750 174 L 228.750 185.750 "/>
    <path id="ID0.00801753718405962" fill="none" stroke="#000000" stroke-width="3" stroke-linecap="round" d="M 238.750 174 L 238.750 185.250 "/>
    <path id="ID0.20637408085167408" fill="none" stroke="#000000" stroke-width="3" stroke-linecap="round" d="M 246.750 174.250 L 246.750 184.500 "/>
    <path id="ID0.9166104337200522" fill="none" stroke="#000000" stroke-width="3" stroke-linecap="round" d="M 256 174 L 256 185 "/>
    <path id="ID0.8333274954929948" fill="none" stroke="#000000" stroke-width="3" stroke-linecap="round" d="M 265 174.500 L 265 185.750 "/>
    <path id="ID0.5450585414655507" fill="none" stroke="#000000" stroke-width="3" stroke-linecap="round" d="M 273.750 174.500 L 273.750 185.500 "/>
    <path id="ID0.023058692924678326" fill="none" stroke="#000000" stroke-width="3" stroke-linecap="round" d="M 282 174.750 L 282 185.750 "/>
  </g>
  <g id="ID0.5865254020318389" transform="matrix(0.3473820388317108, 0, 0, 0.4253164529800415, -44.65, -56)">
    <path id="ID0.0870346836745739" fill="#CC99FF" stroke="#000000" stroke-width="3" d="M 193.500 189.500 L 281.200 189.500 L 285.500 191.750 L 287.250 196.500 L 285.500 201.500 L 280.950 203.250 L 193.500 203.250 L 188.950 200.750 L 187.200 196 L 188.950 191.750 L 193.500 189.500 Z " transform="matrix(0.9563047885894775, 0, 0, 0.9253731369972229, 13.55, -1.55)"/>
    <path id="ID0.8448666068725288" fill="none" stroke="#000000" stroke-width="3" stroke-linecap="round" d="M 200 174.500 L 200 184.750 "/>
    <path id="ID0.6267768274992704" fill="none" stroke="#000000" stroke-width="3" stroke-linecap="round" d="M 209.250 174.250 L 209.250 185 "/>
    <path id="ID0.887018883600831" fill="none" stroke="#000000" stroke-width="3" stroke-linecap="round" d="M 219.750 174.500 L 219.750 185 "/>
    <path id="ID0.5572733832523227" fill="none" stroke="#000000" stroke-width="3" stroke-linecap="round" d="M 228.750 174 L 228.750 185.750 "/>
    <path id="ID0.00801753718405962" fill="none" stroke="#000000" stroke-width="3" stroke-linecap="round" d="M 238.750 174 L 238.750 185.250 "/>
    <path id="ID0.20637408085167408" fill="none" stroke="#000000" stroke-width="3" stroke-linecap="round" d="M 246.750 174.250 L 246.750 184.500 "/>
    <path id="ID0.9166104337200522" fill="none" stroke="#000000" stroke-width="3" stroke-linecap="round" d="M 256 174 L 256 185 "/>
    <path id="ID0.8333274954929948" fill="none" stroke="#000000" stroke-width="3" stroke-linecap="round" d="M 265 174.500 L 265 185.750 "/>
    <path id="ID0.5450585414655507" fill="none" stroke="#000000" stroke-width="3" stroke-linecap="round" d="M 273.750 174.500 L 273.750 185.500 "/>
    <path id="ID0.023058692924678326" fill="none" stroke="#000000" stroke-width="3" stroke-linecap="round" d="M 282 174.750 L 282 185.750 "/>
  </g>
  <g id="ID0.5865254020318389" transform="matrix(0.3473820388317108, 0, 0, 0.4253164529800415, -65.9, -57.25)">
    <path id="ID0.0870346836745739" fill="#CC99FF" stroke="#000000" stroke-width="3" d="M 193.500 189.500 L 281.200 189.500 L 285.500 191.750 L 287.250 196.500 L 285.500 201.500 L 280.950 203.250 L 193.500 203.250 L 188.950 200.750 L 187.200 196 L 188.950 191.750 L 193.500 189.500 Z " transform="matrix(0.9563047885894775, 0, 0, 0.9253731369972229, 13.55, -1.55)"/>
    <path id="ID0.8448666068725288" fill="none" stroke="#000000" stroke-width="3" stroke-linecap="round" d="M 200 174.500 L 200 184.750 "/>
    <path id="ID0.6267768274992704" fill="none" stroke="#000000" stroke-width="3" stroke-linecap="round" d="M 209.250 174.250 L 209.250 185 "/>
    <path id="ID0.887018883600831" fill="none" stroke="#000000" stroke-width="3" stroke-linecap="round" d="M 219.750 174.500 L 219.750 185 "/>
    <path id="ID0.5572733832523227" fill="none" stroke="#000000" stroke-width="3" stroke-linecap="round" d="M 228.750 174 L 228.750 185.750 "/>
    <path id="ID0.00801753718405962" fill="none" stroke="#000000" stroke-width="3" stroke-linecap="round" d="M 238.750 174 L 238.750 185.250 "/>
    <path id="ID0.20637408085167408" fill="none" stroke="#000000" stroke-width="3" stroke-linecap="round" d="M 246.750 174.250 L 246.750 184.500 "/>
    <path id="ID0.9166104337200522" fill="none" stroke="#000000" stroke-width="3" stroke-linecap="round" d="M 256 174 L 256 185 "/>
    <path id="ID0.8333274954929948" fill="none" stroke="#000000" stroke-width="3" stroke-linecap="round" d="M 265 174.500 L 265 185.750 "/>
    <path id="ID0.5450585414655507" fill="none" stroke="#000000" stroke-width="3" stroke-linecap="round" d="M 273.750 174.500 L 273.750 185.500 "/>
    <path id="ID0.023058692924678326" fill="none" stroke="#000000" stroke-width="3" stroke-linecap="round" d="M 282 174.750 L 282 185.750 "/>
  </g>
  <g id="ID0.5865254020318389" transform="matrix(0.3473820388317108, 0, 0, 0.4253164529800415, -42.65, -60)">
    <path id="ID0.0870346836745739" fill="#CC99FF" stroke="#000000" stroke-width="3" d="M 193.500 189.500 L 281.200 189.500 L 285.500 191.750 L 287.250 196.500 L 285.500 201.500 L 280.950 203.250 L 193.500 203.250 L 188.950 200.750 L 187.200 196 L 188.950 191.750 L 193.500 189.500 Z " transform="matrix(0.9563047885894775, 0, 0, 0.9253731369972229, 13.55, -1.55)"/>
    <path id="ID0.8448666068725288" fill="none" stroke="#000000" stroke-width="3" stroke-linecap="round" d="M 200 174.500 L 200 184.750 "/>
    <path id="ID0.6267768274992704" fill="none" stroke="#000000" stroke-width="3" stroke-linecap="round" d="M 209.250 174.250 L 209.250 185 "/>
    <path id="ID0.887018883600831" fill="none" stroke="#000000" stroke-width="3" stroke-linecap="round" d="M 219.750 174.500 L 219.750 185 "/>
    <path id="ID0.5572733832523227" fill="none" stroke="#000000" stroke-width="3" stroke-linecap="round" d="M 228.750 174 L 228.750 185.750 "/>
    <path id="ID0.00801753718405962" fill="none" stroke="#000000" stroke-width="3" stroke-linecap="round" d="M 238.750 174 L 238.750 185.250 "/>
    <path id="ID0.20637408085167408" fill="none" stroke="#000000" stroke-width="3" stroke-linecap="round" d="M 246.750 174.250 L 246.750 184.500 "/>
    <path id="ID0.9166104337200522" fill="none" stroke="#000000" stroke-width="3" stroke-linecap="round" d="M 256 174 L 256 185 "/>
    <path id="ID0.8333274954929948" fill="none" stroke="#000000" stroke-width="3" stroke-linecap="round" d="M 265 174.500 L 265 185.750 "/>
    <path id="ID0.5450585414655507" fill="none" stroke="#000000" stroke-width="3" stroke-linecap="round" d="M 273.750 174.500 L 273.750 185.500 "/>
    <path id="ID0.023058692924678326" fill="none" stroke="#000000" stroke-width="3" stroke-linecap="round" d="M 282 174.750 L 282 185.750 "/>
  </g>
  <g id="ID0.5865254020318389" transform="matrix(0.3473820388317108, 0, 0, 0.4253164529800415, -60, -61.25)">
    <path id="ID0.0870346836745739" fill="#CC99FF" stroke="#000000" stroke-width="3" d="M 193.500 189.500 L 281.200 189.500 L 285.500 191.750 L 287.250 196.500 L 285.500 201.500 L 280.950 203.250 L 193.500 203.250 L 188.950 200.750 L 187.200 196 L 188.950 191.750 L 193.500 189.500 Z " transform="matrix(0.9563047885894775, 0, 0, 0.9253731369972229, 13.55, -1.55)"/>
    <path id="ID0.8448666068725288" fill="none" stroke="#000000" stroke-width="3" stroke-linecap="round" d="M 200 174.500 L 200 184.750 "/>
    <path id="ID0.6267768274992704" fill="none" stroke="#000000" stroke-width="3" stroke-linecap="round" d="M 209.250 174.250 L 209.250 185 "/>
    <path id="ID0.887018883600831" fill="none" stroke="#000000" stroke-width="3" stroke-linecap="round" d="M 219.750 174.500 L 219.750 185 "/>
    <path id="ID0.5572733832523227" fill="none" stroke="#000000" stroke-width="3" stroke-linecap="round" d="M 228.750 174 L 228.750 185.750 "/>
    <path id="ID0.00801753718405962" fill="none" stroke="#000000" stroke-width="3" stroke-linecap="round" d="M 238.750 174 L 238.750 185.250 "/>
    <path id="ID0.20637408085167408" fill="none" stroke="#000000" stroke-width="3" stroke-linecap="round" d="M 246.750 174.250 L 246.750 184.500 "/>
    <path id="ID0.9166104337200522" fill="none" stroke="#000000" stroke-width="3" stroke-linecap="round" d="M 256 174 L 256 185 "/>
    <path id="ID0.8333274954929948" fill="none" stroke="#000000" stroke-width="3" stroke-linecap="round" d="M 265 174.500 L 265 185.750 "/>
    <path id="ID0.5450585414655507" fill="none" stroke="#000000" stroke-width="3" stroke-linecap="round" d="M 273.750 174.500 L 273.750 185.500 "/>
    <path id="ID0.023058692924678326" fill="none" stroke="#000000" stroke-width="3" stroke-linecap="round" d="M 282 174.750 L 282 185.750 "/>
  </g>
  <g id="ID0.5865254020318389" transform="matrix(0.3473820388317108, 0, 0, 0.4253164529800415, -44.55, -64.25)">
    <path id="ID0.0870346836745739" fill="#CC99FF" stroke="#000000" stroke-width="3" d="M 193.500 189.500 L 281.200 189.500 L 285.500 191.750 L 287.250 196.500 L 285.500 201.500 L 280.950 203.250 L 193.500 203.250 L 188.950 200.750 L 187.200 196 L 188.950 191.750 L 193.500 189.500 Z " transform="matrix(0.9563047885894775, 0, 0, 0.9253731369972229, 13.55, -1.55)"/>
    <path id="ID0.8448666068725288" fill="none" stroke="#000000" stroke-width="3" stroke-linecap="round" d="M 200 174.500 L 200 184.750 "/>
    <path id="ID0.6267768274992704" fill="none" stroke="#000000" stroke-width="3" stroke-linecap="round" d="M 209.250 174.250 L 209.250 185 "/>
    <path id="ID0.887018883600831" fill="none" stroke="#000000" stroke-width="3" stroke-linecap="round" d="M 219.750 174.500 L 219.750 185 "/>
    <path id="ID0.5572733832523227" fill="none" stroke="#000000" stroke-width="3" stroke-linecap="round" d="M 228.750 174 L 228.750 185.750 "/>
    <path id="ID0.00801753718405962" fill="none" stroke="#000000" stroke-width="3" stroke-linecap="round" d="M 238.750 174 L 238.750 185.250 "/>
    <path id="ID0.20637408085167408" fill="none" stroke="#000000" stroke-width="3" stroke-linecap="round" d="M 246.750 174.250 L 246.750 184.500 "/>
    <path id="ID0.9166104337200522" fill="none" stroke="#000000" stroke-width="3" stroke-linecap="round" d="M 256 174 L 256 185 "/>
    <path id="ID0.8333274954929948" fill="none" stroke="#000000" stroke-width="3" stroke-linecap="round" d="M 265 174.500 L 265 185.750 "/>
    <path id="ID0.5450585414655507" fill="none" stroke="#000000" stroke-width="3" stroke-linecap="round" d="M 273.750 174.500 L 273.750 185.500 "/>
    <path id="ID0.023058692924678326" fill="none" stroke="#000000" stroke-width="3" stroke-linecap="round" d="M 282 174.750 L 282 185.750 "/>
  </g>
  <g id="ID0.5865254020318389" transform="matrix(0.3473820388317108, 0, 0, 0.4253164529800415, -62.85, -64.75)">
    <path id="ID0.0870346836745739" fill="#CC99FF" stroke="#000000" stroke-width="3" d="M 193.500 189.500 L 281.200 189.500 L 285.500 191.750 L 287.250 196.500 L 285.500 201.500 L 280.950 203.250 L 193.500 203.250 L 188.950 200.750 L 187.200 196 L 188.950 191.750 L 193.500 189.500 Z " transform="matrix(0.9563047885894775, 0, 0, 0.9253731369972229, 13.55, -1.55)"/>
    <path id="ID0.8448666068725288" fill="none" stroke="#000000" stroke-width="3" stroke-linecap="round" d="M 200 174.500 L 200 184.750 "/>
    <path id="ID0.6267768274992704" fill="none" stroke="#000000" stroke-width="3" stroke-linecap="round" d="M 209.250 174.250 L 209.250 185 "/>
    <path id="ID0.887018883600831" fill="none" stroke="#000000" stroke-width="3" stroke-linecap="round" d="M 219.750 174.500 L 219.750 185 "/>
    <path id="ID0.5572733832523227" fill="none" stroke="#000000" stroke-width="3" stroke-linecap="round" d="M 228.750 174 L 228.750 185.750 "/>
    <path id="ID0.00801753718405962" fill="none" stroke="#000000" stroke-width="3" stroke-linecap="round" d="M 238.750 174 L 238.750 185.250 "/>
    <path id="ID0.20637408085167408" fill="none" stroke="#000000" stroke-width="3" stroke-linecap="round" d="M 246.750 174.250 L 246.750 184.500 "/>
    <path id="ID0.9166104337200522" fill="none" stroke="#000000" stroke-width="3" stroke-linecap="round" d="M 256 174 L 256 185 "/>
    <path id="ID0.8333274954929948" fill="none" stroke="#000000" stroke-width="3" stroke-linecap="round" d="M 265 174.500 L 265 185.750 "/>
    <path id="ID0.5450585414655507" fill="none" stroke="#000000" stroke-width="3" stroke-linecap="round" d="M 273.750 174.500 L 273.750 185.500 "/>
    <path id="ID0.023058692924678326" fill="none" stroke="#000000" stroke-width="3" stroke-linecap="round" d="M 282 174.750 L 282 185.750 "/>
  </g>
  <g id="ID0.5865254020318389" transform="matrix(0.3473820388317108, 0, 0, 0.4253164529800415, -48.3, -68.25)">
    <path id="ID0.0870346836745739" fill="#CC99FF" stroke="#000000" stroke-width="3" d="M 193.500 189.500 L 281.200 189.500 L 285.500 191.750 L 287.250 196.500 L 285.500 201.500 L 280.950 203.250 L 193.500 203.250 L 188.950 200.750 L 187.200 196 L 188.950 191.750 L 193.500 189.500 Z " transform="matrix(0.9563047885894775, 0, 0, 0.9253731369972229, 13.55, -1.55)"/>
    <path id="ID0.8448666068725288" fill="none" stroke="#000000" stroke-width="3" stroke-linecap="round" d="M 200 174.500 L 200 184.750 "/>
    <path id="ID0.6267768274992704" fill="none" stroke="#000000" stroke-width="3" stroke-linecap="round" d="M 209.250 174.250 L 209.250 185 "/>
    <path id="ID0.887018883600831" fill="none" stroke="#000000" stroke-width="3" stroke-linecap="round" d="M 219.750 174.500 L 219.750 185 "/>
    <path id="ID0.5572733832523227" fill="none" stroke="#000000" stroke-width="3" stroke-linecap="round" d="M 228.750 174 L 228.750 185.750 "/>
    <path id="ID0.00801753718405962" fill="none" stroke="#000000" stroke-width="3" stroke-linecap="round" d="M 238.750 174 L 238.750 185.250 "/>
    <path id="ID0.20637408085167408" fill="none" stroke="#000000" stroke-width="3" stroke-linecap="round" d="M 246.750 174.250 L 246.750 184.500 "/>
    <path id="ID0.9166104337200522" fill="none" stroke="#000000" stroke-width="3" stroke-linecap="round" d="M 256 174 L 256 185 "/>
    <path id="ID0.8333274954929948" fill="none" stroke="#000000" stroke-width="3" stroke-linecap="round" d="M 265 174.500 L 265 185.750 "/>
    <path id="ID0.5450585414655507" fill="none" stroke="#000000" stroke-width="3" stroke-linecap="round" d="M 273.750 174.500 L 273.750 185.500 "/>
    <path id="ID0.023058692924678326" fill="none" stroke="#000000" stroke-width="3" stroke-linecap="round" d="M 282 174.750 L 282 185.750 "/>
  </g>
  <g id="ID0.5865254020318389" transform="matrix(0.3473820388317108, 0, 0, 0.4253164529800415, -57.75, -69.55)">
    <path id="ID0.0870346836745739" fill="#CC99FF" stroke="#000000" stroke-width="3" d="M 193.500 189.500 L 281.200 189.500 L 285.500 191.750 L 287.250 196.500 L 285.500 201.500 L 280.950 203.250 L 193.500 203.250 L 188.950 200.750 L 187.200 196 L 188.950 191.750 L 193.500 189.500 Z " transform="matrix(0.9563047885894775, 0, 0, 0.9253731369972229, 13.55, -1.55)"/>
    <path id="ID0.8448666068725288" fill="none" stroke="#000000" stroke-width="3" stroke-linecap="round" d="M 200 174.500 L 200 184.750 "/>
    <path id="ID0.6267768274992704" fill="none" stroke="#000000" stroke-width="3" stroke-linecap="round" d="M 209.250 174.250 L 209.250 185 "/>
    <path id="ID0.887018883600831" fill="none" stroke="#000000" stroke-width="3" stroke-linecap="round" d="M 219.750 174.500 L 219.750 185 "/>
    <path id="ID0.5572733832523227" fill="none" stroke="#000000" stroke-width="3" stroke-linecap="round" d="M 228.750 174 L 228.750 185.750 "/>
    <path id="ID0.00801753718405962" fill="none" stroke="#000000" stroke-width="3" stroke-linecap="round" d="M 238.750 174 L 238.750 185.250 "/>
    <path id="ID0.20637408085167408" fill="none" stroke="#000000" stroke-width="3" stroke-linecap="round" d="M 246.750 174.250 L 246.750 184.500 "/>
    <path id="ID0.9166104337200522" fill="none" stroke="#000000" stroke-width="3" stroke-linecap="round" d="M 256 174 L 256 185 "/>
    <path id="ID0.8333274954929948" fill="none" stroke="#000000" stroke-width="3" stroke-linecap="round" d="M 265 174.500 L 265 185.750 "/>
    <path id="ID0.5450585414655507" fill="none" stroke="#000000" stroke-width="3" stroke-linecap="round" d="M 273.750 174.500 L 273.750 185.500 "/>
    <path id="ID0.023058692924678326" fill="none" stroke="#000000" stroke-width="3" stroke-linecap="round" d="M 282 174.750 L 282 185.750 "/>
  </g>
  <g id="ID0.5865254020318389" transform="matrix(0.3473820388317108, 0, 0, 0.4253164529800415, -49.8, -72.05)">
    <path id="ID0.0870346836745739" fill="#CC99FF" stroke="#000000" stroke-width="3" d="M 193.500 189.500 L 281.200 189.500 L 285.500 191.750 L 287.250 196.500 L 285.500 201.500 L 280.950 203.250 L 193.500 203.250 L 188.950 200.750 L 187.200 196 L 188.950 191.750 L 193.500 189.500 Z " transform="matrix(0.9563047885894775, 0, 0, 0.9253731369972229, 13.55, -1.55)"/>
    <path id="ID0.8448666068725288" fill="none" stroke="#000000" stroke-width="3" stroke-linecap="round" d="M 200 174.500 L 200 184.750 "/>
    <path id="ID0.6267768274992704" fill="none" stroke="#000000" stroke-width="3" stroke-linecap="round" d="M 209.250 174.250 L 209.250 185 "/>
    <path id="ID0.887018883600831" fill="none" stroke="#000000" stroke-width="3" stroke-linecap="round" d="M 219.750 174.500 L 219.750 185 "/>
    <path id="ID0.5572733832523227" fill="none" stroke="#000000" stroke-width="3" stroke-linecap="round" d="M 228.750 174 L 228.750 185.750 "/>
    <path id="ID0.00801753718405962" fill="none" stroke="#000000" stroke-width="3" stroke-linecap="round" d="M 238.750 174 L 238.750 185.250 "/>
    <path id="ID0.20637408085167408" fill="none" stroke="#000000" stroke-width="3" stroke-linecap="round" d="M 246.750 174.250 L 246.750 184.500 "/>
    <path id="ID0.9166104337200522" fill="none" stroke="#000000" stroke-width="3" stroke-linecap="round" d="M 256 174 L 256 185 "/>
    <path id="ID0.8333274954929948" fill="none" stroke="#000000" stroke-width="3" stroke-linecap="round" d="M 265 174.500 L 265 185.750 "/>
    <path id="ID0.5450585414655507" fill="none" stroke="#000000" stroke-width="3" stroke-linecap="round" d="M 273.750 174.500 L 273.750 185.500 "/>
    <path id="ID0.023058692924678326" fill="none" stroke="#000000" stroke-width="3" stroke-linecap="round" d="M 282 174.750 L 282 185.750 "/>
  </g>
  <g id="ID0.5865254020318389" transform="matrix(0.3473820388317108, 0, 0, 0.4253164529800415, -60.8, -69.05)">
    <path id="ID0.0870346836745739" fill="#CC99FF" stroke="#000000" stroke-width="3" d="M 193.500 189.500 L 281.200 189.500 L 285.500 191.750 L 287.250 196.500 L 285.500 201.500 L 280.950 203.250 L 193.500 203.250 L 188.950 200.750 L 187.200 196 L 188.950 191.750 L 193.500 189.500 Z " transform="matrix(0.9563047885894775, 0, 0, 0.9253731369972229, 13.55, -1.55)"/>
    <path id="ID0.8448666068725288" fill="none" stroke="#000000" stroke-width="3" stroke-linecap="round" d="M 200 174.500 L 200 184.750 "/>
    <path id="ID0.6267768274992704" fill="none" stroke="#000000" stroke-width="3" stroke-linecap="round" d="M 209.250 174.250 L 209.250 185 "/>
    <path id="ID0.887018883600831" fill="none" stroke="#000000" stroke-width="3" stroke-linecap="round" d="M 219.750 174.500 L 219.750 185 "/>
    <path id="ID0.5572733832523227" fill="none" stroke="#000000" stroke-width="3" stroke-linecap="round" d="M 228.750 174 L 228.750 185.750 "/>
    <path id="ID0.00801753718405962" fill="none" stroke="#000000" stroke-width="3" stroke-linecap="round" d="M 238.750 174 L 238.750 185.250 "/>
    <path id="ID0.20637408085167408" fill="none" stroke="#000000" stroke-width="3" stroke-linecap="round" d="M 246.750 174.250 L 246.750 184.500 "/>
    <path id="ID0.9166104337200522" fill="none" stroke="#000000" stroke-width="3" stroke-linecap="round" d="M 256 174 L 256 185 "/>
    <path id="ID0.8333274954929948" fill="none" stroke="#000000" stroke-width="3" stroke-linecap="round" d="M 265 174.500 L 265 185.750 "/>
    <path id="ID0.5450585414655507" fill="none" stroke="#000000" stroke-width="3" stroke-linecap="round" d="M 273.750 174.500 L 273.750 185.500 "/>
    <path id="ID0.023058692924678326" fill="none" stroke="#000000" stroke-width="3" stroke-linecap="round" d="M 282 174.750 L 282 185.750 "/>
  </g>
  <g id="ID0.5865254020318389" transform="matrix(0.3473820388317108, 0, 0, 0.4253164529800415, -55.1, -72.75)">
    <path id="ID0.0870346836745739" fill="#CC99FF" stroke="#000000" stroke-width="3" d="M 193.500 189.500 L 281.200 189.500 L 285.500 191.750 L 287.250 196.500 L 285.500 201.500 L 280.950 203.250 L 193.500 203.250 L 188.950 200.750 L 187.200 196 L 188.950 191.750 L 193.500 189.500 Z " transform="matrix(0.9563047885894775, 0, 0, 0.9253731369972229, 13.55, -1.55)"/>
    <path id="ID0.8448666068725288" fill="none" stroke="#000000" stroke-width="3" stroke-linecap="round" d="M 200 174.500 L 200 184.750 "/>
    <path id="ID0.6267768274992704" fill="none" stroke="#000000" stroke-width="3" stroke-linecap="round" d="M 209.250 174.250 L 209.250 185 "/>
    <path id="ID0.887018883600831" fill="none" stroke="#000000" stroke-width="3" stroke-linecap="round" d="M 219.750 174.500 L 219.750 185 "/>
    <path id="ID0.5572733832523227" fill="none" stroke="#000000" stroke-width="3" stroke-linecap="round" d="M 228.750 174 L 228.750 185.750 "/>
    <path id="ID0.00801753718405962" fill="none" stroke="#000000" stroke-width="3" stroke-linecap="round" d="M 238.750 174 L 238.750 185.250 "/>
    <path id="ID0.20637408085167408" fill="none" stroke="#000000" stroke-width="3" stroke-linecap="round" d="M 246.750 174.250 L 246.750 184.500 "/>
    <path id="ID0.9166104337200522" fill="none" stroke="#000000" stroke-width="3" stroke-linecap="round" d="M 256 174 L 256 185 "/>
    <path id="ID0.8333274954929948" fill="none" stroke="#000000" stroke-width="3" stroke-linecap="round" d="M 265 174.500 L 265 185.750 "/>
    <path id="ID0.5450585414655507" fill="none" stroke="#000000" stroke-width="3" stroke-linecap="round" d="M 273.750 174.500 L 273.750 185.500 "/>
    <path id="ID0.023058692924678326" fill="none" stroke="#000000" stroke-width="3" stroke-linecap="round" d="M 282 174.750 L 282 185.750 "/>
  </g>
</svg>