<svg version="1.1" width="53" height="30" viewBox="-1 -1 53 30" xmlns="http://www.w3.org/2000/svg" xmlns:xlink="http://www.w3.org/1999/xlink">
  <!-- Exported by Scratch - http://scratch.mit.edu/ -->
  <g id="ID0.47447338607162237" transform="matrix(1, 0, 0, 1, -214, -197.5)">
    <path id="ID0.0870346836745739" fill="#FF0000" stroke="#000000" stroke-width="3" d="M 193.500 189.500 L 281.200 189.500 L 285.500 191.750 L 287.250 196.500 L 285.500 201.500 L 280.950 203.250 L 193.500 203.250 L 188.950 200.750 L 187.200 196 L 188.950 191.750 L 193.500 189.500 Z " transform="matrix(0.3153771162033081, 0, 0, 0.3051762580871582, 174.25, 163.95)"/>
    <path id="ID0.0870346836745739" fill="#FF0000" stroke="#000000" stroke-width="3" d="M 193.500 189.500 L 281.200 189.500 L 285.500 191.750 L 287.250 196.500 L 285.500 201.500 L 280.950 203.250 L 193.500 203.250 L 188.950 200.750 L 187.200 196 L 188.950 191.750 L 193.500 189.500 Z " transform="matrix(0.3153771162033081, 0, 0, 0.3051762580871582, 158, 163.35)"/>
    <path id="ID0.0870346836745739" fill="#FF0000" stroke="#000000" stroke-width="3" d="M 193.500 189.500 L 281.200 189.500 L 285.500 191.750 L 287.250 196.500 L 285.500 201.500 L 280.950 203.250 L 193.500 203.250 L 188.950 200.750 L 187.200 196 L 188.950 191.750 L 193.500 189.500 Z " transform="matrix(0.3153771162033081, 0, 0, 0.3051762580871582, 174, 161.1)"/>
    <path id="ID0.0870346836745739" fill="#FF0000" stroke="#000000" stroke-width="3" d="M 193.500 189.500 L 281.200 189.500 L 285.500 191.750 L 287.250 196.500 L 285.500 201.500 L 280.950 203.250 L 193.500 203.250 L 188.950 200.750 L 187.200 196 L 188.950 191.750 L 193.500 189.500 Z " transform="matrix(0.3153771162033081, 0, 0, 0.3051762580871582, 159.95, 160.7)"/>
    <path id="ID0.0870346836745739" fill="#FF0000" stroke="#000000" stroke-width="3" d="M 193.500 189.500 L 281.200 189.500 L 285.500 191.750 L 287.250 196.500 L 285.500 201.500 L 280.950 203.250 L 193.500 203.250 L 188.950 200.750 L 187.200 196 L 188.950 191.750 L 193.500 189.500 Z " transform="matrix(0.3153771162033081, 0, 0, 0.3051762580871582, 155.6, 158.2)"/>
    <path id="ID0.0870346836745739" fill="#FF0000" stroke="#000000" stroke-width="3" d="M 193.500 189.500 L 281.200 189.500 L 285.500 191.750 L 287.250 196.500 L 285.500 201.500 L 280.950 203.250 L 193.500 203.250 L 188.950 200.750 L 187.200 196 L 188.950 191.750 L 193.500 189.500 Z " transform="matrix(0.3153771162033081, 0, 0, 0.3051762580871582, 171.85, 157.95)"/>
    <path id="ID0.0870346836745739" fill="#FF0000" stroke="#000000" stroke-width="3" d="M 193.500 189.500 L 281.200 189.500 L 285.500 191.750 L 287.250 196.500 L 285.500 201.500 L 280.950 203.250 L 193.500 203.250 L 188.950 200.750 L 187.200 196 L 188.950 191.750 L 193.500 189.500 Z " transform="matrix(0.3153771162033081, 0, 0, 0.3051762580871582, 160.45, 156)"/>
    <path id="ID0.0870346836745739" fill="#FF0000" stroke="#000000" stroke-width="3" d="M 193.500 189.500 L 281.200 189.500 L 285.500 191.750 L 287.250 196.500 L 285.500 201.500 L 280.950 203.250 L 193.500 203.250 L 188.950 200.750 L 187.200 196 L 188.950 191.750 L 193.500 189.500 Z " transform="matrix(0.3153771162033081, 0, 0, 0.3051762580871582, 171.25, 154)"/>
    <path id="ID0.0870346836745739" fill="#FF0000" stroke="#000000" stroke-width="3" d="M 193.500 189.500 L 281.200 189.500 L 285.500 191.750 L 287.250 196.500 L 285.500 201.500 L 280.950 203.250 L 193.500 203.250 L 188.950 200.750 L 187.200 196 L 188.950 191.750 L 193.500 189.500 Z " transform="matrix(0.3153771162033081, 0, 0, 0.3051762580871582, 158.6, 152.85)"/>
    <path id="ID0.0870346836745739" fill="#FF0000" stroke="#000000" stroke-width="3" d="M 193.500 189.500 L 281.200 189.500 L 285.500 191.750 L 287.250 196.500 L 285.500 201.500 L 280.950 203.250 L 193.500 203.250 L 188.950 200.750 L 187.200 196 L 188.950 191.750 L 193.500 189.500 Z " transform="matrix(0.3153771162033081, 0, 0, 0.3051762580871582, 172.25, 151.6)"/>
    <path id="ID0.0870346836745739" fill="#FF0000" stroke="#000000" stroke-width="3" d="M 193.500 189.500 L 281.200 189.500 L 285.500 191.750 L 287.250 196.500 L 285.500 201.500 L 280.950 203.250 L 193.500 203.250 L 188.950 200.750 L 187.200 196 L 188.950 191.750 L 193.500 189.500 Z " transform="matrix(0.3153771162033081, 0, 0, 0.3051762580871582, 156.7, 150)"/>
    <path id="ID0.0870346836745739" fill="#FF0000" stroke="#000000" stroke-width="3" d="M 193.500 189.500 L 281.200 189.500 L 285.500 191.750 L 287.250 196.500 L 285.500 201.500 L 280.950 203.250 L 193.500 203.250 L 188.950 200.750 L 187.200 196 L 188.950 191.750 L 193.500 189.500 Z " transform="matrix(0.3153771162033081, 0, 0, 0.3051762580871582, 169.95, 148.45)"/>
    <path id="ID0.0870346836745739" fill="#FF0000" stroke="#000000" stroke-width="3" d="M 193.500 189.500 L 281.200 189.500 L 285.500 191.750 L 287.250 196.500 L 285.500 201.500 L 280.950 203.250 L 193.500 203.250 L 188.950 200.750 L 187.200 196 L 188.950 191.750 L 193.500 189.500 Z " transform="matrix(0.3153771162033081, 0, 0, 0.3051762580871582, 159.95, 147.5)"/>
    <path id="ID0.0870346836745739" fill="#FF0000" stroke="#000000" stroke-width="3" d="M 193.500 189.500 L 281.200 189.500 L 285.500 191.750 L 287.250 196.500 L 285.500 201.500 L 280.950 203.250 L 193.500 203.250 L 188.950 200.750 L 187.200 196 L 188.950 191.750 L 193.500 189.500 Z " transform="matrix(0.3153771162033081, 0, 0, 0.3051762580871582, 165.6, 145.45)"/>
    <path id="ID0.0870346836745739" fill="#FF0000" stroke="#000000" stroke-width="3" d="M 193.500 189.500 L 281.200 189.500 L 285.500 191.750 L 287.250 196.500 L 285.500 201.500 L 280.950 203.250 L 193.500 203.250 L 188.950 200.750 L 187.200 196 L 188.950 191.750 L 193.500 189.500 Z " transform="matrix(0.3153771162033081, 0, 0, 0.3051762580871582, 155.6, 143.35)"/>
    <path id="ID0.0870346836745739" fill="#FF0000" stroke="#000000" stroke-width="3" d="M 193.500 189.500 L 281.200 189.500 L 285.500 191.750 L 287.250 196.500 L 285.500 201.500 L 280.950 203.250 L 193.500 203.250 L 188.950 200.750 L 187.200 196 L 188.950 191.750 L 193.500 189.500 Z " transform="matrix(0.3153771162033081, 0, 0, 0.3051762580871582, 167.95, 149.95)"/>
    <path id="ID0.0870346836745739" fill="#FF0000" stroke="#000000" stroke-width="3" d="M 193.500 189.500 L 281.200 189.500 L 285.500 191.750 L 287.250 196.500 L 285.500 201.500 L 280.950 203.250 L 193.500 203.250 L 188.950 200.750 L 187.200 196 L 188.950 191.750 L 193.500 189.500 Z " transform="matrix(0.3153771162033081, 0, 0, 0.3051762580871582, 164.85, 157.1)"/>
    <path id="ID0.0870346836745739" fill="#FF0000" stroke="#000000" stroke-width="3" d="M 193.500 189.500 L 281.200 189.500 L 285.500 191.750 L 287.250 196.500 L 285.500 201.500 L 280.950 203.250 L 193.500 203.250 L 188.950 200.750 L 187.200 196 L 188.950 191.750 L 193.500 189.500 Z " transform="matrix(0.3153771162033081, 0, 0, 0.3051762580871582, 157.2, 140.7)"/>
    <path id="ID0.0870346836745739" fill="#FF0000" stroke="#000000" stroke-width="3" d="M 193.500 189.500 L 281.200 189.500 L 285.500 191.750 L 287.250 196.500 L 285.500 201.500 L 280.950 203.250 L 193.500 203.250 L 188.950 200.750 L 187.200 196 L 188.950 191.750 L 193.500 189.500 Z " transform="matrix(0.3153771162033081, 0, 0, 0.3051762580871582, 164.2, 140.75)"/>
  </g>
</svg>