<svg version="1.1" width="97" height="45" viewBox="-1 -1 97 45" xmlns="http://www.w3.org/2000/svg" xmlns:xlink="http://www.w3.org/1999/xlink">
  <!-- Exported by Scratch - http://scratch.mit.edu/ -->
  <g id="ID0.4848288572393358" transform="matrix(1, 0, 0, 1, 0, 0.5)">
    <path id="ID0.011174672283232212" fill="#FFD499" stroke="#000000" stroke-width="3" stroke-linecap="round" d="M 242 183.750 C 253.324 183.620 265.817 187.083 274.750 194.250 C 282.775 200.690 285.770 211.686 289 221.250 C 289.833 223.771 286.129 222.983 284.500 223.250 C 282.200 223.628 279.835 223.472 277.500 223.500 C 273.255 223.562 268.996 223.738 264.750 223.750 C 256.998 223.771 249.088 223.622 241.250 223.750 C 231.855 223.706 222.417 223.987 213 224 C 209.616 224.004 206.146 224.182 202.750 223.750 C 200.609 223.511 195.944 224.473 196.500 222 C 198.726 212.109 201.884 201.448 209.500 195 C 218.311 187.540 230.548 183.881 242 183.750 Z " transform="matrix(1, 0, 0, 1, -194.25, -182)"/>
    <path id="ID0.9948353110812604" fill="none" stroke="#000000" stroke-width="3" stroke-linecap="round" d="M 211.500 220 L 211.800 220.300 " transform="matrix(1, 0, 0, 1, -194, -192.5)"/>
    <path id="ID0.10744901793077588" fill="none" stroke="#000000" stroke-width="3" stroke-linecap="round" d="M 220 210.500 L 220.300 210.800 " transform="matrix(1, 0, 0, 1, -194, -192.5)"/>
    <path id="ID0.43113984633237123" fill="none" stroke="#000000" stroke-width="3" stroke-linecap="round" d="M 228.250 220.750 L 228.550 221.050 " transform="matrix(1, 0, 0, 1, -194, -192.5)"/>
    <path id="ID0.5325646563433111" fill="none" stroke="#000000" stroke-width="3" stroke-linecap="round" d="M 236 204.750 L 236.300 205.050 " transform="matrix(1, 0, 0, 1, -194, -192.5)"/>
    <path id="ID0.04380561551079154" fill="none" stroke="#000000" stroke-width="3" stroke-linecap="round" d="M 240.250 214.750 L 240.550 215.050 " transform="matrix(1, 0, 0, 1, -194, -192.5)"/>
    <path id="ID0.46368608716875315" fill="none" stroke="#000000" stroke-width="3" stroke-linecap="round" d="M 250.500 207.500 L 250.800 207.800 " transform="matrix(1, 0, 0, 1, -194, -192.5)"/>
    <path id="ID0.24777573952451348" fill="none" stroke="#000000" stroke-width="3" stroke-linecap="round" d="M 251.750 219.750 L 252.050 220.050 " transform="matrix(1, 0, 0, 1, -194, -192.5)"/>
    <path id="ID0.7976976968348026" fill="none" stroke="#000000" stroke-width="3" stroke-linecap="round" d="M 244 224.750 L 244.300 225.050 " transform="matrix(1, 0, 0, 1, -194, -192.5)"/>
    <path id="ID0.5984965008683503" fill="none" stroke="#000000" stroke-width="3" stroke-linecap="round" d="M 271 225.500 L 271.300 225.800 " transform="matrix(1, 0, 0, 1, -194, -192.5)"/>
    <path id="ID0.8376878760755062" fill="none" stroke="#000000" stroke-width="3" stroke-linecap="round" d="M 261.250 213.250 L 261.550 213.550 " transform="matrix(1, 0, 0, 1, -194, -192.5)"/>
    <path id="ID0.2542467596940696" fill="none" stroke="#000000" stroke-width="3" stroke-linecap="round" d="M 271.500 214 L 271.800 214.300 " transform="matrix(1, 0, 0, 1, -194, -192.5)"/>
    <path id="ID0.6745576453395188" fill="none" stroke="#000000" stroke-width="3" stroke-linecap="round" d="M 259.500 225.250 L 259.800 225.550 " transform="matrix(1, 0, 0, 1, -194, -192.5)"/>
    <path id="ID0.5332103478722274" fill="none" stroke="#000000" stroke-width="3" stroke-linecap="round" d="M 266 220.500 L 266.300 220.800 " transform="matrix(1, 0, 0, 1, -194, -192.5)"/>
    <path id="ID0.7156236893497407" fill="none" stroke="#000000" stroke-width="3" stroke-linecap="round" d="M 231.250 211.750 L 231.550 212.050 " transform="matrix(1, 0, 0, 1, -194, -192.5)"/>
    <path id="ID0.0720958593301475" fill="none" stroke="#000000" stroke-width="3" stroke-linecap="round" d="M 233.750 225.250 L 234.050 225.550 " transform="matrix(1, 0, 0, 1, -194, -192.5)"/>
    <path id="ID0.23342882236465812" fill="none" stroke="#000000" stroke-width="3" stroke-linecap="round" d="M 220 219.500 L 220.300 219.800 " transform="matrix(1, 0, 0, 1, -194, -192.5)"/>
    <path id="ID0.6217888849787414" fill="none" stroke="#000000" stroke-width="3" stroke-linecap="round" d="M 220.500 227.250 L 220.800 227.550 " transform="matrix(1, 0, 0, 1, -194, -192.5)"/>
    <path id="ID0.7485213298350573" fill="none" stroke="#000000" stroke-width="3" stroke-linecap="round" d="M 207.750 228 L 208.050 228.300 " transform="matrix(1, 0, 0, 1, -194, -192.5)"/>
    <path id="ID0.11192744597792625" fill="none" stroke="#000000" stroke-width="3" stroke-linecap="round" d="M 250.750 213.500 L 251.050 213.800 " transform="matrix(1, 0, 0, 1, -194, -192.5)"/>
    <path id="ID0.046049435157328844" fill="none" stroke="#000000" stroke-width="3" stroke-linecap="round" d="M 244.250 199.500 L 244.550 199.800 " transform="matrix(1, 0, 0, 1, -194, -192.5)"/>
    <path id="ID0.46988189313560724" fill="none" stroke="#000000" stroke-width="3" stroke-linecap="round" d="M 260.500 205.250 L 260.800 205.550 " transform="matrix(1, 0, 0, 1, -194, -192.5)"/>
    <path id="ID0.9691301961429417" fill="none" stroke="#000000" stroke-width="3" stroke-linecap="round" d="M 226.250 201.500 L 226.550 201.800 " transform="matrix(1, 0, 0, 1, -194, -192.5)"/>
    <path id="ID0.32559166802093387" fill="none" stroke="#000000" stroke-width="3" stroke-linecap="round" d="M 212.250 212.250 L 212.550 212.550 " transform="matrix(1, 0, 0, 1, -194, -192.5)"/>
    <path id="ID0.7095645675435662" fill="none" stroke="#000000" stroke-width="3" stroke-linecap="round" d="M 204.750 221.250 L 205.050 221.550 " transform="matrix(1, 0, 0, 1, -194, -192.5)"/>
    <path id="ID0.9626663853414357" fill="none" stroke="#000000" stroke-width="3" stroke-linecap="round" d="M 277.500 220.750 L 277.800 221.050 " transform="matrix(1, 0, 0, 1, -194, -192.5)"/>
    <path id="ID0.5431961794383824" fill="none" stroke="#000000" stroke-width="3" stroke-linecap="round" d="M 279.500 227.500 L 279.800 227.800 " transform="matrix(1, 0, 0, 1, -194, -192.5)"/>
  </g>
</svg>