<svg version="1.1" width="105" height="21" viewBox="-1 -1 105 21" xmlns="http://www.w3.org/2000/svg" xmlns:xlink="http://www.w3.org/1999/xlink">
  <!-- Exported by Scratch - http://scratch.mit.edu/ -->
  <path id="ID0.0870346836745739" fill="#00CC44" stroke="#000000" stroke-width="3" d="M 193.500 189.500 L 281.200 189.500 L 285.500 191.750 L 287.250 196.500 L 289.650 202.400 L 287.550 206.450 L 281.250 205.950 L 276.050 203.500 L 271.350 201.600 L 267.950 205.100 L 263.500 206.450 L 258.800 205.650 L 255.600 203.750 L 253.050 201.900 L 251.700 204.850 L 248.850 208.100 L 245.700 209.700 L 240.500 210.800 L 235.250 210.500 L 230.800 209.450 L 227.650 207 L 224.250 202.400 L 220.850 205.650 L 216.950 206.750 L 211.200 207 L 206.500 204.600 L 202.050 201.050 L 197.600 203.500 L 191.600 206.200 L 186.650 205.950 L 184.550 201.600 L 187.200 196 L 188.950 191.750 L 193.500 189.500 Z " transform="matrix(0.9563047885894775, 0, 0, 0.8019900321960449, -174.45, -150.45)"/>
</svg>